<svg width="46" height="46" viewBox="0 0 46 46" fill="none" xmlns="http://www.w3.org/2000/svg">
<g filter="url(#filter0_d_11339_3478)">
<path d="M4 12.6667C4 8.23292 4 6.01604 4.86287 4.32258C5.62186 2.83296 6.83296 1.62186 8.32258 0.862865C10.016 0 12.2329 0 16.6667 0H29.3333C33.7671 0 35.984 0 37.6774 0.862865C39.167 1.62186 40.3781 2.83296 41.1371 4.32258C42 6.01604 42 8.23292 42 12.6667V25.3333C42 29.7671 42 31.984 41.1371 33.6774C40.3781 35.167 39.167 36.3781 37.6774 37.1371C35.984 38 33.7671 38 29.3333 38H16.6667C12.2329 38 10.016 38 8.32258 37.1371C6.83296 36.3781 5.62186 35.167 4.86287 33.6774C4 31.984 4 29.7671 4 25.3333V12.6667Z" fill="#2BE080"/>
<circle cx="23" cy="19" r="11" fill="white"/>
<path fill-rule="evenodd" clip-rule="evenodd" d="M19.1538 19C19.1538 21.1242 20.8758 22.8462 23 22.8462C25.1242 22.8462 26.8462 21.1242 26.8462 19H29C29 22.3137 26.3137 25 23 25C19.6863 25 17 22.3137 17 19H19.1538Z" fill="#2BE080"/>
</g>
<defs>
<filter id="filter0_d_11339_3478" x="0" y="0" width="46" height="46" filterUnits="userSpaceOnUse" color-interpolation-filters="sRGB">
<feFlood flood-opacity="0" result="BackgroundImageFix"/>
<feColorMatrix in="SourceAlpha" type="matrix" values="0 0 0 0 0 0 0 0 0 0 0 0 0 0 0 0 0 0 127 0" result="hardAlpha"/>
<feOffset dy="4"/>
<feGaussianBlur stdDeviation="2"/>
<feComposite in2="hardAlpha" operator="out"/>
<feColorMatrix type="matrix" values="0 0 0 0 0 0 0 0 0 0 0 0 0 0 0 0 0 0 0.25 0"/>
<feBlend mode="normal" in2="BackgroundImageFix" result="effect1_dropShadow_11339_3478"/>
<feBlend mode="normal" in="SourceGraphic" in2="effect1_dropShadow_11339_3478" result="shape"/>
</filter>
</defs>
</svg>
